<?xml version="1.0" encoding="UTF-8" standalone="no"?>
<svg
   xmlns:dc="http://purl.org/dc/elements/1.1/"
   xmlns:cc="http://creativecommons.org/ns#"
   xmlns:rdf="http://www.w3.org/1999/02/22-rdf-syntax-ns#"
   xmlns:svg="http://www.w3.org/2000/svg"
   xmlns="http://www.w3.org/2000/svg"
   xmlns:sodipodi="http://sodipodi.sourceforge.net/DTD/sodipodi-0.dtd"
   xmlns:inkscape="http://www.inkscape.org/namespaces/inkscape"
   version="1.1"
   viewBox="0 0 25 31.25"
   x="0px"
   y="0px"
   id="svg62"
   sodipodi:docname="field-trials-inkscape.svg"
   inkscape:version="0.92.3 (2405546, 2018-03-11)">
  <metadata
     id="metadata68">
    <rdf:RDF>
      <cc:Work
         rdf:about="">
        <dc:format>image/svg+xml</dc:format>
        <dc:type
           rdf:resource="http://purl.org/dc/dcmitype/StillImage" />
        <dc:title></dc:title>
      </cc:Work>
    </rdf:RDF>
  </metadata>
  <defs
     id="defs66" />
  <sodipodi:namedview
     pagecolor="#ffffff"
     bordercolor="#666666"
     borderopacity="1"
     objecttolerance="10"
     gridtolerance="10"
     guidetolerance="10"
     inkscape:pageopacity="0"
     inkscape:pageshadow="2"
     inkscape:window-width="1920"
     inkscape:window-height="1017"
     id="namedview64"
     showgrid="false"
     inkscape:zoom="10.680141"
     inkscape:cx="-19.260503"
     inkscape:cy="2.2650226"
     inkscape:window-x="-8"
     inkscape:window-y="-8"
     inkscape:window-maximized="1"
     inkscape:current-layer="layer3" />
  <g
     transform="translate(0,-1027.3622)"
     id="g56">
    <g
       transform="matrix(0.05583212,0,0,0.05583212,53.303798,1072.6974)"
       id="g54">
      <circle
         r="35.16507"
         cy="-702.43073"
         cx="-735.90424"
         style="opacity:1;fill:#000000;fill-opacity:1;fill-rule:nonzero;stroke:none;stroke-width:4.06599998;stroke-miterlimit:4;stroke-dasharray:none;stroke-dashoffset:0;stroke-opacity:1"
         id="circle2" />
      <path
         d="m -736.30869,-747.29655 c -2.76,0 -5,-11.58912 -5,-25.86857 0,-14.27946 2.24,-25.86858 5,-25.86858 2.76,0 5,11.58912 5,25.86858 0,14.27945 -2.24,25.86857 -5,25.86857 z"
         style=""
         fill="#000000"
         fill-rule="evenodd"
         stroke="none"
         id="path4" />
      <path
         d="m -767.02745,-735.97905 c -1.74773,2.13613 -9.14186,-1.01937 -16.50475,-7.04352 -7.36289,-6.02415 -11.92012,-12.64698 -10.17239,-14.78311 1.74773,-2.13613 9.14186,1.01937 16.50475,7.04352 7.36289,6.02415 11.92012,12.64698 10.17239,14.78311 z"
         style=""
         fill="#000000"
         fill-rule="evenodd"
         stroke="none"
         id="path6" />
      <path
         d="m -779.96171,-703.64328 c 0,2.76 -11.77023,5 -26.27283,5 -14.50259,0 -26.27282,-2.24 -26.27282,-5 0,-2.76 11.77023,-5 26.27282,-5 14.5026,0 26.27283,2.24 26.27283,5 z"
         style=""
         fill="#000000"
         fill-rule="evenodd"
         stroke="none"
         id="path8" />
      <path
         d="m -767.02745,-672.11602 c 1.95161,1.95162 -1.53475,8.60579 -7.78205,14.85305 -6.24729,6.24726 -12.90148,9.73358 -14.85309,7.78196 -1.95161,-1.95162 1.53475,-8.60579 7.78205,-14.85305 6.24729,-6.24726 12.90148,-9.73358 14.85309,-7.78196 z"
         style=""
         fill="#000000"
         fill-rule="evenodd"
         stroke="none"
         id="path10" />
      <path
         d="m -736.30869,-659.99014 c 2.75963,-0.0452 5.1804,10.96391 5.40351,24.574 0.22311,13.61008 -1.83551,24.69266 -4.59514,24.7379 -2.75963,0.0452 -5.1804,-10.96391 -5.40351,-24.574 -0.22311,-13.61008 1.83551,-24.69266 4.59514,-24.7379 z"
         style=""
         fill="#000000"
         fill-rule="evenodd"
         stroke="none"
         id="path12" />
      <path
         d="m -703.16468,-672.11602 c 2.02517,-1.87517 8.19581,1.49208 13.77374,7.5162 5.57792,6.02412 8.46132,12.43514 6.43615,14.31031 -2.02517,1.87517 -8.19581,-1.49208 -13.77374,-7.5162 -5.57792,-6.02412 -8.46132,-12.43514 -6.43615,-14.31031 z"
         style=""
         fill="#000000"
         fill-rule="evenodd"
         stroke="none"
         id="path14" />
      <path
         d="m -693.46392,-703.64328 c 0.0468,-2.7596 10.76844,-4.81821 23.9323,-4.5951 13.16386,0.22311 23.80961,2.64387 23.76284,5.40347 -0.0468,2.7596 -10.76844,4.81821 -23.9323,4.5951 -13.16386,-0.22311 -23.80961,-2.64387 -23.76284,-5.40347 z"
         style=""
         fill="#000000"
         fill-rule="evenodd"
         stroke="none"
         id="path16" />
      <path
         d="m -706.3983,-734.3623 c -2.0225,-1.87806 1.04417,-8.47249 6.84524,-14.71972 5.80108,-6.24723 12.15064,-9.79322 14.17314,-7.91516 2.0225,1.87806 -1.04417,8.47249 -6.84524,14.71972 -5.80108,6.24723 -12.15064,9.79322 -14.17314,7.91516 z"
         style=""
         fill="#000000"
         fill-rule="evenodd"
         stroke="none"
         id="path18" />
      <path
         d="m -935.98165,-441.72417 c 0.006,-2.75999 89.64466,-4.81894 200.08724,-4.59586 110.44259,0.22307 200.07262,2.64412 200.06705,5.40411 -0.006,2.75999 -89.64466,4.81894 -200.08724,4.59586 -110.44259,-0.22307 -200.07262,-2.64412 -200.06705,-5.40411 z"
         style=""
         fill="#000000"
         fill-rule="evenodd"
         stroke="none"
         id="path20" />
      <path
         d="m -952.14941,-420.70604 c 0,-2.76 34.58623,-5 77.20141,-5 42.61518,0 77.20141,2.24 77.20141,5 0,2.76 -34.58623,5 -77.20141,5 -42.61518,0 -77.20141,-2.24 -77.20141,-5 z"
         style=""
         fill="#000000"
         fill-rule="evenodd"
         stroke="none"
         id="path22" />
      <path
         d="m -744.39257,-420.70604 c 0.01,-2.75998 49.99615,-4.81889 111.57623,-4.59578 61.58007,0.22312 111.54999,2.64418 111.53999,5.40416 -0.01,2.75998 -49.99615,4.81889 -111.57623,4.59578 -61.58007,-0.22312 -111.54999,-2.64418 -111.53999,-5.40416 z"
         style=""
         fill="#000000"
         fill-rule="evenodd"
         stroke="none"
         id="path24" />
      <path
         d="m -939.61934,-398.47509 c 0.008,-2.75999 64.6595,-4.81896 144.312,-4.59592 79.6525,0.22304 144.29173,2.64405 144.284,5.40404 -0.008,2.75999 -64.6595,4.81896 -144.312,4.59592 -79.6525,-0.22304 -144.29173,-2.64405 -144.284,-5.40404 z"
         style=""
         fill="#000000"
         fill-rule="evenodd"
         stroke="none"
         id="path26" />
      <path
         d="m -649.81053,-397.66672 c 0.0174,-2.75995 28.8231,-4.81882 64.29854,-4.59571 35.47543,0.22311 64.253,2.64414 64.23564,5.40409 -0.0174,2.75995 -28.8231,4.81882 -64.29854,4.59571 -35.47543,-0.22311 -64.253,-2.64414 -64.23564,-5.40409 z"
         style=""
         fill="#000000"
         fill-rule="evenodd"
         stroke="none"
         id="path28" />
      <path
         d="m -853.52549,-458.70055 c -0.5921,-2.23659 4.1184,-4.45873 8.42595,-8.77657 1.52562,-1.49401 3.0074,-3.27199 4.31214,-5.34996 0.18633,-0.29675 0.3659,-0.59469 0.53876,-0.8933 0,0 0,0 0,0 2.07975,-3.39518 3.84359,-8.54038 5.12001,-11.38809 1.46801,-3.27514 2.8923,-5.30145 4.23815,-5.11935 1.26472,0.17112 2.30179,2.48392 2.56806,6.26488 0.25865,3.67281 -0.23034,9.32762 -3.19602,15.07958 0,0 -10e-6,0 -10e-6,0 -0.24943,0.46357 -0.51625,0.92232 -0.80056,1.37492 -1.99937,3.18286 -4.58903,5.63218 -7.31092,7.32295 -7.6717,4.6544 -13.49325,3.00462 -13.89556,1.48494 z"
         style=""
         fill="#000000"
         fill-rule="evenodd"
         stroke="none"
         id="path30" />
      <path
         d="m -764.21201,-457.19413 c -0.59212,-2.23657 4.11831,-4.45876 8.42582,-8.7766 1.52561,-1.49402 3.00739,-3.27202 4.31213,-5.35 0.18633,-0.29674 0.36589,-0.59467 0.53875,-0.89327 0,0 0,-10e-6 0,-10e-6 2.07975,-3.39517 3.8436,-8.54035 5.12004,-11.38806 1.46801,-3.27512 2.8923,-5.30142 4.23815,-5.11932 1.26472,0.17112 2.30179,2.48392 2.56805,6.26488 0.25865,3.67281 -0.23036,9.3276 -3.19605,15.07953 0,0 0,0 0,0 -0.24943,0.46356 -0.51624,0.9223 -0.80054,1.37488 -1.99936,3.18286 -4.58902,5.63219 -7.3109,7.32296 -7.67161,4.65439 -13.49312,3.0047 -13.89545,1.48501 z"
         style=""
         fill="#000000"
         fill-rule="evenodd"
         stroke="none"
         id="path32" />
      <path
         d="m -861.19144,-457.19413 c -0.40233,1.51969 -6.22387,3.16939 -13.89552,-1.485 -2.72188,-1.69075 -5.31154,-4.14005 -7.31092,-7.32289 -0.28431,-0.45261 -0.55114,-0.91136 -0.80058,-1.37495 0,0 0,0 0,0 -2.96571,-5.75195 -3.45468,-11.40675 -3.196,-15.07958 0.2663,-3.78096 1.30342,-6.09374 2.56814,-6.26484 1.34586,-0.18207 2.7701,1.84425 4.23807,5.11937 1.27642,2.84775 3.04018,7.9928 5.11997,11.38801 0,0 0,0 0,0 0.17286,0.29861 0.35244,0.59655 0.53878,0.89332 1.30473,2.07795 2.78653,3.85593 4.31214,5.34994 4.30757,4.31785 9.01804,6.54005 8.42592,8.77662 z"
         style=""
         fill="#000000"
         fill-rule="evenodd"
         stroke="none"
         id="path38" />
      <path
         d="m -773.07678,-456.38575 c -0.40233,1.51969 -6.22386,3.16939 -13.89551,-1.48501 -2.72188,-1.69076 -5.31154,-4.14007 -7.31091,-7.32292 -0.28431,-0.45259 -0.55113,-0.91134 -0.80057,-1.37492 0,0 0,0 0,0 -2.9657,-5.75194 -3.45471,-11.40673 -3.19607,-15.07954 0.26626,-3.78096 1.30333,-6.09376 2.56805,-6.26488 1.34585,-0.1821 2.77014,1.8442 4.23815,5.11932 1.27644,2.84771 3.04029,7.99288 5.12005,11.38806 0,0 0,0 0,0 0.17286,0.29861 0.35244,0.59655 0.53877,0.8933 1.30474,2.07797 2.78653,3.85596 4.31215,5.34997 4.30754,4.31786 9.01801,6.54005 8.42589,8.77662 z"
         style=""
         fill="#000000"
         fill-rule="evenodd"
         stroke="none"
         id="path40" />
      <path
         d="m -857.56737,-469.36486 c -2.75958,0.0484 -5.18036,-10.2338 -5.40354,-22.9514 -0.22318,-12.71761 1.83534,-23.07844 4.59492,-23.12687 2.75958,-0.0484 5.18036,10.2338 5.40354,22.9514 0.22318,12.71761 -1.83534,23.07844 -4.59492,23.12687 z"
         style=""
         fill="#000000"
         fill-rule="evenodd"
         stroke="none"
         id="path46" />
      <path
         d="m -768.64446,-469.36486 c -2.75951,0.0521 -5.18019,-9.50288 -5.4033,-21.328 -0.22311,-11.82513 1.83542,-21.46459 4.59493,-21.51665 2.75951,-0.0521 5.18019,9.50288 5.4033,21.328 0.22311,11.82513 -1.83542,21.46459 -4.59493,21.51665 z"
         style=""
         fill="#000000"
         fill-rule="evenodd"
         stroke="none"
         id="path48" />
    </g>
  </g>
  <g
     inkscape:groupmode="layer"
     id="layer3"
     inkscape:label="field-cropped"
     style="display:none">
    <path
       transform="matrix(0.05583212,0,0,0.05583212,53.303798,45.3352)"
       d="m -676.09735,-458.0025 c -0.59209,-2.23658 4.11843,-4.4587 8.42602,-8.77653 1.52562,-1.49401 3.00743,-3.272 4.31219,-5.34997 0.18633,-0.29676 0.3659,-0.59469 0.53877,-0.89331 0,0 0,0 0,0 2.0798,-3.39522 3.8436,-8.54033 5.12004,-11.38809 1.468,-3.27513 2.89226,-5.30146 4.23812,-5.11937 1.26472,0.17111 2.30181,2.48391 2.56809,6.26489 0.25865,3.67285 -0.23035,9.32767 -3.19608,15.07963 0,0 0,10e-6 0,10e-6 -0.24944,0.46357 -0.51627,0.92232 -0.80058,1.37492 -1.99939,3.18286 -4.58908,5.63218 -7.31099,7.32294 -7.67173,4.65437 -13.49328,3.00456 -13.89558,1.48488 z"
       style="fill:#000000;fill-rule:evenodd;stroke:none"
       id="path34"
       inkscape:connector-curvature="0" />
    <path
       transform="matrix(0.05583212,0,0,0.05583212,53.303798,45.3352)"
       d="m -587.98268,-456.38575 c -0.59212,-2.23658 4.11838,-4.45877 8.42595,-8.77665 1.52561,-1.49402 3.0074,-3.27201 4.31215,-5.34997 0.18634,-0.29678 0.36592,-0.59473 0.5388,-0.89336 0,0 0,-10e-6 0,-10e-6 2.07976,-3.39519 3.84358,-8.54033 5.12,-11.38806 1.468,-3.27512 2.89226,-5.30143 4.23811,-5.11934 1.26472,0.17111 2.3018,2.4839 2.56808,6.26486 0.25867,3.67282 -0.23032,9.32761 -3.196,15.07956 0,0 0,0 0,0 -0.24945,0.4636 -0.51629,0.92238 -0.80061,1.375 -1.99937,3.18284 -4.58901,5.63215 -7.31089,7.32292 -7.67169,4.65445 -13.49326,3.00474 -13.89559,1.48505 z"
       style="fill:#000000;fill-rule:evenodd;stroke:none"
       id="path36"
       inkscape:connector-curvature="0" />
    <path
       transform="matrix(0.05583212,0,0,0.05583212,53.303798,45.3352)"
       d="m -686.57861,-457.19413 c -0.40233,1.51969 -6.22389,3.16941 -13.89558,-1.48499 -2.72188,-1.69075 -5.31153,-4.14004 -7.31091,-7.32288 -0.28432,-0.45261 -0.55115,-0.91137 -0.8006,-1.37497 0,0 0,0 0,0 -2.96571,-5.75195 -3.45469,-11.40675 -3.19602,-15.07957 0.26629,-3.78095 1.30338,-6.09374 2.5681,-6.26485 1.34585,-0.18208 2.77011,1.84423 4.2381,5.11935 1.27643,2.84773 3.04022,7.99284 5.12,11.38803 0,0 0,0 0,0 0.17287,0.29862 0.35245,0.59656 0.53879,0.89333 1.30473,2.07795 2.78653,3.85592 4.31214,5.34993 4.30759,4.31785 9.0181,6.54004 8.42598,8.77662 z"
       style="fill:#000000;fill-rule:evenodd;stroke:none"
       id="path42"
       inkscape:connector-curvature="0" />
    <path
       transform="matrix(0.05583212,0,0,0.05583212,53.303798,45.3352)"
       d="m -596.84708,-457.19413 c -0.40233,1.51972 -6.22395,3.16936 -13.89558,-1.48499 -2.72183,-1.69072 -5.31143,-4.13995 -7.31077,-7.32267 -0.28436,-0.45268 -0.55125,-0.91151 -0.80073,-1.37518 0,0 0,0 0,0 -2.9657,-5.75196 -3.45468,-11.40676 -3.19601,-15.07957 0.26628,-3.78096 1.30337,-6.09374 2.56808,-6.26485 1.34585,-0.18208 2.7701,1.84422 4.23809,5.11934 1.27642,2.84774 3.04022,7.99285 5.12001,11.38804 0,0 0,0 0,0 0.1729,0.29867 0.35251,0.59666 0.53888,0.89347 1.30472,2.07787 2.78647,3.8558 4.31206,5.34978 4.30753,4.31781 9.01808,6.54007 8.42597,8.77663 z"
       style="fill:#000000;fill-rule:evenodd;stroke:none"
       id="path44"
       inkscape:connector-curvature="0" />
    <path
       transform="matrix(0.05583212,0,0,0.05583212,53.303798,45.3352)"
       d="m -681.33779,-468.55649 c -2.75956,-0.0493 -4.81818,-10.2297 -4.59514,-22.72419 0.22304,-12.49449 2.6437,-22.59496 5.40326,-22.5457 2.75956,0.0493 4.81818,10.2297 4.59514,22.72419 -0.22304,12.49449 -2.6437,22.59496 -5.40326,22.5457 z"
       style="fill:#000000;fill-rule:evenodd;stroke:none"
       id="path50"
       inkscape:connector-curvature="0" />
    <path
       transform="matrix(0.05583212,0,0,0.05583212,53.303798,45.3352)"
       d="m -593.22326,-469.36486 c -2.76,0 -5,-10.50261 -5,-23.44333 0,-12.94071 2.24,-23.44332 5,-23.44332 2.76,0 5,10.50261 5,23.44332 0,12.94072 -2.24,23.44333 -5,23.44333 z"
       style="fill:#000000;fill-rule:evenodd;stroke:none"
       id="path52"
       inkscape:connector-curvature="0" />
  </g>
  <g
     inkscape:groupmode="layer"
     id="layer1"
     inkscape:label="farmer"
     style="display:inline">
    <g
       id="g905"
       transform="matrix(0.18595873,0,0,0.18595873,10.993961,13.351993)">
      <path
         id="path876"
         d="m 63.294459,45.299185 c 0,10.014 -2.375,18.886 -6.029,24.357 -2.411,3.611 -5.379,-17.846 -8.59,-17.846 -3.504,0 -6.721,21.049 -9.239,16.816 -3.283,-5.52 -5.38,-13.92 -5.38,-23.328 0,-16.622 6.545,-30.098 14.619,-30.098 8.075,0.001 14.619,13.476 14.619,30.099 z"
         inkscape:connector-curvature="0" />
      <circle
         id="circle878"
         r="8.1079998"
         cy="0.21318543"
         cx="48.675461" />
      <path
         id="path880"
         d="m 61.574459,-1.2608152 c 0,0.67899996 -0.549,1.22899996 -1.229,1.22899996 h -23.341 c -0.679,0 -1.229,-0.55 -1.229,-1.22899996 v 0 c 0,-0.679 0.55,-1.229 1.229,-1.229 h 23.341 c 0.68,0 1.229,0.55 1.229,1.229 z"
         inkscape:connector-curvature="0" />
      <path
         id="path882"
         d="m 25.967459,5.9821848 c 0,1.591 0.033,4.3520002 0.033,4.3520002 l -13.701,0.003 c 0,0 0.031,-2.7630002 0.032,-4.3540002 0,-4.679 3.053,-9.4720001 6.818,-9.4720001 3.765,0 6.818,4.7920001 6.818,9.4710001 z"
         inkscape:connector-curvature="0" />
      <path
         id="path884"
         d="m 20.512459,59.909185 c 0,0.753 -0.61,1.363 -1.363,1.363 v 0 c -0.753,0 -1.364,-0.61 -1.364,-1.363 V 9.6841848 c 0,-0.753 0.61,-1.363 1.364,-1.363 v 0 c 0.753,0 1.363,0.61 1.363,1.363 z"
         inkscape:connector-curvature="0" />
      <text
         id="text888"
         font-weight="bold"
         font-size="5px"
         y="120"
         x="0"
         style="font-weight:bold;font-size:5px;font-family:'Helvetica Neue', Helvetica, Arial-Unicode, Arial, Sans-serif;fill:#000000" />
    </g>
  </g>
</svg>
