<?xml version="1.0" encoding="UTF-8" standalone="no"?>
<svg
   xmlns:dc="http://purl.org/dc/elements/1.1/"
   xmlns:cc="http://creativecommons.org/ns#"
   xmlns:rdf="http://www.w3.org/1999/02/22-rdf-syntax-ns#"
   xmlns:svg="http://www.w3.org/2000/svg"
   xmlns="http://www.w3.org/2000/svg"
   xmlns:sodipodi="http://sodipodi.sourceforge.net/DTD/sodipodi-0.dtd"
   xmlns:inkscape="http://www.inkscape.org/namespaces/inkscape"
   version="1.1"
   x="0px"
   y="0px"
   viewBox="0 0 76.970001 74"
   enable-background="new 0 0 100 100"
   xml:space="preserve"
   id="svg12"
   sodipodi:docname="case-study.svg"
   width="76.970001"
   height="74"
   inkscape:version="0.92.3 (2405546, 2018-03-11)"><metadata
     id="metadata18"><rdf:RDF><cc:Work
         rdf:about=""><dc:format>image/svg+xml</dc:format><dc:type
           rdf:resource="http://purl.org/dc/dcmitype/StillImage" /><dc:title></dc:title></cc:Work></rdf:RDF></metadata><defs
     id="defs16" /><sodipodi:namedview
     pagecolor="#ffffff"
     bordercolor="#666666"
     borderopacity="1"
     objecttolerance="10"
     gridtolerance="10"
     guidetolerance="10"
     inkscape:pageopacity="0"
     inkscape:pageshadow="2"
     inkscape:window-width="1920"
     inkscape:window-height="1017"
     id="namedview14"
     showgrid="false"
     fit-margin-top="0"
     fit-margin-left="0"
     fit-margin-right="0"
     fit-margin-bottom="0"
     inkscape:zoom="1.888"
     inkscape:cx="54.419492"
     inkscape:cy="24.5"
     inkscape:window-x="1912"
     inkscape:window-y="-8"
     inkscape:window-maximized="1"
     inkscape:current-layer="svg12" /><g
     id="g6"
     transform="translate(-12,-13)"><path
       d="m 40.172,62 h -13.08 c -0.832,0 -1.508,0.672 -1.508,1.5 0,0.828 0.676,1.5 1.508,1.5 h 13.08 c 0.834,0 1.51,-0.672 1.51,-1.5 0,-0.828 -0.676,-1.5 -1.51,-1.5 z"
       id="path2"
       inkscape:connector-curvature="0" /><path
       d="M 88.527,67.939 76.645,56.129 c 2.748,-3.291 4.404,-7.518 4.404,-12.13 0,-5.939 -2.746,-11.237 -7.039,-14.722 V 17 c 0,-2.2 -1.811,-4 -4.025,-4 H 16.025 C 13.811,13 12,14.8 12,17 v 66 c 0,2.2 1.811,4 4.025,4 h 53.961 c 2.215,0 4.025,-1.8 4.025,-4 L 74.01,58.722 c 0.18,-0.145 0.344,-0.303 0.518,-0.454 l 11.865,11.793 c 0.59,0.586 1.545,0.586 2.135,0 0.59,-0.586 0.589,-1.536 -0.001,-2.122 z M 58.281,52 H 48.011 C 46.794,49.916 46.042,47.539 45.884,45 H 58.28 c 0.834,0 1.51,-0.672 1.51,-1.5 0,-0.828 -0.676,-1.5 -1.51,-1.5 H 45.973 c 0.324,-2.57 1.254,-4.956 2.658,-7 h 9.65 c 0.834,0 1.51,-0.672 1.51,-1.5 0,-0.828 -0.676,-1.5 -1.51,-1.5 h -6.963 c 2.838,-2.481 6.547,-4 10.613,-4 3.357,0 6.477,1.03 9.059,2.784 l 0.002,26.431 C 68.408,58.97 65.289,60 61.932,60 57.344,60 53.207,58.072 50.272,55 h 8.01 c 0.834,0 1.51,-0.672 1.51,-1.5 0,-0.828 -0.677,-1.5 -1.511,-1.5 z m 19.748,-8.001 c 0,4.04 -1.525,7.724 -4.02,10.543 V 33.457 c 2.495,2.818 4.02,6.502 4.02,10.542 z M 70.992,83 c 0,0.542 -0.461,1 -1.006,1 H 16.025 C 15.48,84 15.019,83.542 15.019,83 V 17 c 0,-0.542 0.461,-1 1.006,-1 h 53.959 c 0.545,0 1.006,0.458 1.006,1 V 27.268 C 68.295,25.822 65.211,25 61.932,25 55.953,25 50.619,27.729 47.116,32 H 27.092 c -0.832,0 -1.508,0.672 -1.508,1.5 0,0.828 0.676,1.5 1.508,1.5 h 18.002 c -1.15,2.123 -1.908,4.488 -2.172,7 h -15.83 c -0.832,0 -1.508,0.672 -1.508,1.5 0,0.828 0.676,1.5 1.508,1.5 h 15.773 c 0.131,2.492 0.738,4.854 1.744,7 H 27.092 c -0.832,0 -1.508,0.672 -1.508,1.5 0,0.828 0.676,1.5 1.508,1.5 h 19.271 c 3.465,4.836 9.139,8 15.568,8 3.279,0 6.363,-0.822 9.061,-2.269 V 83 Z"
       id="path4"
       inkscape:connector-curvature="0" /></g></svg>