<?xml version="1.0" encoding="UTF-8" standalone="no"?>
<svg
   xmlns:dc="http://purl.org/dc/elements/1.1/"
   xmlns:cc="http://creativecommons.org/ns#"
   xmlns:rdf="http://www.w3.org/1999/02/22-rdf-syntax-ns#"
   xmlns:svg="http://www.w3.org/2000/svg"
   xmlns="http://www.w3.org/2000/svg"
   xmlns:sodipodi="http://sodipodi.sourceforge.net/DTD/sodipodi-0.dtd"
   xmlns:inkscape="http://www.inkscape.org/namespaces/inkscape"
   data-name="Layer 1"
   viewBox="0 0 60 59.999996"
   x="0px"
   y="0px"
   version="1.1"
   id="svg44"
   sodipodi:docname="concepts.svg"
   width="60"
   height="59.999996"
   inkscape:version="0.92.3 (2405546, 2018-03-11)">
  <metadata
     id="metadata50">
    <rdf:RDF>
      <cc:Work
         rdf:about="">
        <dc:format>image/svg+xml</dc:format>
        <dc:type
           rdf:resource="http://purl.org/dc/dcmitype/StillImage" />
        <dc:title>concept-idea-opinion-knowledge-brainstorm</dc:title>
      </cc:Work>
    </rdf:RDF>
  </metadata>
  <defs
     id="defs48" />
  <sodipodi:namedview
     pagecolor="#ffffff"
     bordercolor="#666666"
     borderopacity="1"
     objecttolerance="10"
     gridtolerance="10"
     guidetolerance="10"
     inkscape:pageopacity="0"
     inkscape:pageshadow="2"
     inkscape:window-width="684"
     inkscape:window-height="480"
     id="namedview46"
     showgrid="false"
     fit-margin-top="0"
     fit-margin-left="0"
     fit-margin-right="0"
     fit-margin-bottom="0"
     inkscape:zoom="2.95"
     inkscape:cx="36.271186"
     inkscape:cy="22.032227"
     inkscape:window-x="0"
     inkscape:window-y="0"
     inkscape:window-maximized="0"
     inkscape:current-layer="svg44" />
  <title
     id="title2">concept-idea-opinion-knowledge-brainstorm</title>
  <rect
     x="25"
     y="48.978531"
     width="10"
     height="3.9960999"
     id="rect4" />
  <path
     d="m 26,53.97365 v 1.998 a 1.999,1.999 0 0 0 2,1.99812 h 4 a 1.999,1.999 0 0 0 2,-1.99805 v -1.998 z"
     id="path6"
     inkscape:connector-curvature="0" />
  <path
     d="M 28.51605,16.09296 A 13.04493,13.04493 0 0 0 17.07135,27.61919 12.36889,12.36889 0 0 0 20.22791,37.30677 15.65661,15.65661 0 0 1 24,47.67334 V 47.9795 H 36 V 47.67731 A 16.85486,16.85486 0 0 1 40.04181,36.99023 12.23593,12.23593 0 0 0 43,28.99803 12.999,12.999 0 0 0 28.51605,16.09296 Z M 31,43.9834 h -2 v -1.998 h 2 z m 0,-10.07317 v 6.07707 h -2 v -6.99317 a 0.99925,0.99925 0 0 1 1,-0.999 3.9961,3.9961 0 1 0 -4,-3.9961 h -2 a 6,6 0 1 1 7,5.91123 z"
     id="path8"
     inkscape:connector-curvature="0" />
  <path
     d="M 31,7.99226 V 0 h -2 v 7.99226 l -2.3999,-1.79811 -1.2002,1.598 4,2.99707 a 1.0003,1.0003 0 0 0 1.2002,0 l 4,-2.99707 -1.2002,-1.598 z"
     id="path10"
     inkscape:connector-curvature="0" />
  <path
     d="m 8.2002,35.39218 1.5996,1.198 3,-3.9961 a 0.99581,0.99581 0 0 0 0,-1.198 l -3,-3.9961 -1.5996,1.198 1.79992,2.398 H 0 v 1.998 h 10.00012 z"
     id="path12"
     inkscape:connector-curvature="0" />
  <path
     d="m 49.99988,30.99608 1.79992,-2.398 -1.5996,-1.198 -3,3.9961 a 0.99581,0.99581 0 0 0 0,1.198 l 3,3.9961 1.5996,-1.198 -1.79992,-2.39805 H 60 v -1.998 z"
     id="path14"
     inkscape:connector-curvature="0" />
  <path
     d="m 47.81934,44.99316 -0.28321,-1.97854 -4.9497,0.70634 a 1.0001,1.0001 0 0 0 -0.84815,0.84781 l -0.707,4.94537 1.97949,0.28292 0.42432,-2.9678 7.07129,7.06439 1.41406,-1.41268 -7.07117,-7.06427 z"
     id="path16"
     inkscape:connector-curvature="0" />
  <path
     d="m 10.394,17.21168 0.28321,1.97854 4.9497,-0.70634 a 1.00011,1.00011 0 0 0 0.84815,-0.84781 l 0.707,-4.94537 -1.97942,-0.28293 -0.42432,2.9678 L 7.707,8.31119 6.293,9.72387 l 7.07117,7.06427 z"
     id="path18"
     inkscape:connector-curvature="0" />
  <path
     d="m 44.37305,18.48388 4.9497,0.70634 0.28321,-1.97854 -2.9701,-0.42354 7.07114,-7.06427 -1.414,-1.41268 -7.07129,7.06439 -0.42435,-2.96781 -1.97949,0.28292 0.707,4.94537 a 1.00011,1.00011 0 0 0 0.84818,0.84782 z"
     id="path20"
     inkscape:connector-curvature="0" />
  <path
     d="m 17.41357,43.72096 -4.9497,-0.70634 -0.28321,1.97854 2.9701,0.42354 -7.07117,7.06427 1.41406,1.41268 7.07129,-7.06439 0.42432,2.9678 1.97949,-0.28292 -0.707,-4.94537 a 1.0001,1.0001 0 0 0 -0.84818,-0.84781 z"
     id="path22"
     inkscape:connector-curvature="0" />
  <rect
     x="56.03223"
     y="53.973648"
     width="2"
     height="1.99805"
     id="rect24" />
  <rect
     x="-58.102684"
     y="57.868881"
     width="1.99909"
     height="2.0000601"
     transform="rotate(-88.15509)"
     id="rect26" />
  <rect
     x="58"
     y="56.003899"
     width="2"
     height="1.99805"
     id="rect28" />
  <rect
     x="-56.170094"
     y="55.804295"
     width="1.9971359"
     height="2.0010357"
     transform="rotate(-88.1559)"
     id="rect30"
     style="stroke-width:0.99999791" />
  <rect
     x="3.0322299"
     y="53.973648"
     width="2"
     height="1.99805"
     id="rect32" />
  <rect
     x="-59.808975"
     y="4.8963532"
     width="1.99909"
     height="2.0000601"
     transform="rotate(-88.15509)"
     id="rect34" />
  <rect
     x="5"
     y="56.003899"
     width="2"
     height="1.99805"
     id="rect36" />
  <rect
     x="-57.87553"
     y="2.8316512"
     width="1.9971359"
     height="2.0010357"
     transform="rotate(-88.1559)"
     id="rect38"
     style="stroke-width:0.99999791" />
</svg>
