<?xml version="1.0" encoding="UTF-8" standalone="no"?>
<svg
   xmlns:dc="http://purl.org/dc/elements/1.1/"
   xmlns:cc="http://creativecommons.org/ns#"
   xmlns:rdf="http://www.w3.org/1999/02/22-rdf-syntax-ns#"
   xmlns:svg="http://www.w3.org/2000/svg"
   xmlns="http://www.w3.org/2000/svg"
   xmlns:sodipodi="http://sodipodi.sourceforge.net/DTD/sodipodi-0.dtd"
   xmlns:inkscape="http://www.inkscape.org/namespaces/inkscape"
   viewBox="0 0 60 60"
   version="1.1"
   x="0px"
   y="0px"
   id="svg46"
   sodipodi:docname="tools.svg"
   width="60"
   height="60"
   inkscape:version="0.92.3 (2405546, 2018-03-11)">
  <metadata
     id="metadata52">
    <rdf:RDF>
      <cc:Work
         rdf:about="">
        <dc:format>image/svg+xml</dc:format>
        <dc:type
           rdf:resource="http://purl.org/dc/dcmitype/StillImage" />
        <dc:title>3D Printing - Outline - 001 - Software</dc:title>
      </cc:Work>
    </rdf:RDF>
  </metadata>
  <defs
     id="defs50" />
  <sodipodi:namedview
     pagecolor="#ffffff"
     bordercolor="#666666"
     borderopacity="1"
     objecttolerance="10"
     gridtolerance="10"
     guidetolerance="10"
     inkscape:pageopacity="0"
     inkscape:pageshadow="2"
     inkscape:window-width="684"
     inkscape:window-height="480"
     id="namedview48"
     showgrid="false"
     fit-margin-top="0"
     fit-margin-left="0"
     fit-margin-right="0"
     fit-margin-bottom="0"
     inkscape:zoom="3.1466667"
     inkscape:cx="39.851695"
     inkscape:cy="22.5"
     inkscape:window-x="0"
     inkscape:window-y="0"
     inkscape:window-maximized="0"
     inkscape:current-layer="svg46" />
  <title
     id="title2">3D Printing - Outline - 001 - Software</title>
  <desc
     id="desc4">Created with Sketch.</desc>
  <g
     id="g40"
     style="fill:none;fill-rule:evenodd;stroke:none;stroke-width:1">
    <g
       id="g38"
       style="fill:#000000;fill-rule:nonzero">
      <path
         d="M 9,33 H 7 C 5.3438951,32.998192 4.0018077,31.656105 4,30 V 7 C 4.0018077,5.3438951 5.3438951,4.0018077 7,4 h 2 c 1.656105,0.00181 2.998192,1.3438951 3,3 v 23 c -0.0018,1.656105 -1.343895,2.998192 -3,3 z M 7,6 C 6.4480122,6.0007162 6.0007162,6.4480122 6,7 v 23 c 7.162e-4,0.551988 0.4480122,0.999284 1,1 h 2 c 0.5519878,-7.16e-4 0.9992838,-0.448012 1,-1 V 7 C 9.9992838,6.4480122 9.5519878,6.0007162 9,6 Z"
         id="path6"
         inkscape:connector-curvature="0" />
      <path
         d="M 53,13 H 51 C 49.343895,12.9982 48.001808,11.656105 48,10 V 7 c 0.0018,-1.6561049 1.343895,-2.9981923 3,-3 h 2 c 1.656105,0.00181 2.998192,1.3438951 3,3 v 3 c -0.0018,1.656105 -1.343895,2.998192 -3,3 z M 51,6 c -0.551988,7.162e-4 -0.999284,0.4480122 -1,1 v 3 c 7.16e-4,0.551988 0.448012,0.999284 1,1 h 2 c 0.551988,-7.16e-4 0.999284,-0.448012 1,-1 V 7 C 53.999284,6.4480122 53.551988,6.0007162 53,6 Z"
         id="path8"
         inkscape:connector-curvature="0" />
      <path
         d="m 53,23 h -2 c -1.656105,-0.0018 -2.998192,-1.343895 -3,-3 v -2 c 0.0018,-1.656105 1.343895,-2.998192 3,-3 h 2 c 1.656105,0.0018 2.998192,1.343895 3,3 v 2 c -0.0018,1.656105 -1.343895,2.998192 -3,3 z m -2,-6 c -0.551988,7.16e-4 -0.999284,0.448012 -1,1 v 2 c 7.16e-4,0.551988 0.448012,0.999284 1,1 h 2 c 0.551988,-7.16e-4 0.999284,-0.448012 1,-1 v -2 c -7.16e-4,-0.551988 -0.448012,-0.999284 -1,-1 z"
         id="path10"
         inkscape:connector-curvature="0" />
      <path
         d="m 53,33 h -2 c -1.656105,-0.0018 -2.998192,-1.343895 -3,-3 v -2 c 0.0018,-1.656105 1.343895,-2.998192 3,-3 h 2 c 1.656105,0.0018 2.998192,1.343895 3,3 v 2 c -0.0018,1.656105 -1.343895,2.998192 -3,3 z m -2,-6 c -0.551988,7.16e-4 -0.999284,0.448012 -1,1 v 2 c 7.16e-4,0.551988 0.448012,0.999284 1,1 h 2 c 0.551988,-7.16e-4 0.999284,-0.448012 1,-1 v -2 c -7.16e-4,-0.551988 -0.448012,-0.999284 -1,-1 z"
         id="path12"
         inkscape:connector-curvature="0" />
      <path
         d="M 60,37 H 0 V 3 C 0.00180771,1.3438951 1.3438951,0.00180771 3,0 h 54 c 1.656105,0.00180771 2.998192,1.3438951 3,3 z M 2,35 H 58 V 3 C 57.999284,2.4480122 57.551988,2.0007162 57,2 H 3 C 2.4480122,2.0007162 2.0007162,2.4480122 2,3 Z"
         id="path14"
         inkscape:connector-curvature="0" />
      <path
         d="M 57,48 H 3 C 1.3438951,47.998192 0.00180771,46.656105 0,45 V 35 h 58.70117 c 0.717027,7.17e-4 1.298113,0.581803 1.29883,1.29883 V 45 c -0.0018,1.656105 -1.343895,2.998192 -3,3 z M 2,37 v 8 c 7.162e-4,0.551988 0.4480122,0.999284 1,1 h 54 c 0.551988,-7.16e-4 0.999284,-0.448012 1,-1 v -8 z"
         id="path16"
         inkscape:connector-curvature="0" />
      <path
         d="M 36.811,60 H 23.189 c -0.850632,-0.0035 -1.62281,-0.497697 -1.982184,-1.268694 -0.359374,-0.770997 -0.241344,-1.680169 0.302984,-2.333846 1.046072,-1.260882 2.021835,-2.578474 2.92285,-3.94678 1.99609,-3.03711 1.13135,-4.98975 1.12207,-5.00879 L 24.84424,46 h 10.31152 l -0.70508,1.43164 c -0.05615,0.127 -0.84033,2.0415 1.1167,5.019 0.901023,1.368423 1.876956,2.686024 2.92334,3.94678 0.544132,0.653823 0.661975,1.562985 0.302519,2.333929 C 38.433782,59.502294 37.661619,59.996485 36.811,60 Z M 27.709,48 c 0.131818,1.980623 -0.436045,3.944646 -1.60449,5.54932 -0.941723,1.430007 -1.961668,2.806939 -3.05518,4.12451 -0.05401,0.05919 -0.06514,0.145884 -0.02783,0.2168 0.02655,0.06865 0.09397,0.112671 0.1675,0.10937 h 13.622 c 0.07352,0.0033 0.140933,-0.04073 0.16748,-0.10937 0.03721,-0.07086 0.0263,-0.157399 -0.02734,-0.2168 C 35.857319,56.356384 34.837208,54.979444 33.89548,53.54932 32.727039,51.944644 32.159179,49.980622 32.291,48 Z"
         id="path18"
         inkscape:connector-curvature="0" />
      <path
         d="m 25,32.916 c -0.181314,8.6e-5 -0.359229,-0.0492 -0.51465,-0.14258 l -5,-3 C 19.184191,29.592706 18.999945,29.267218 19,28.916 v -7 c -5.5e-5,-0.351218 0.184191,-0.676706 0.48535,-0.85742 l 5,-3 c 0.316676,-0.190431 0.712624,-0.190431 1.0293,0 l 5,3 C 30.815809,21.239294 31.000055,21.564782 31,21.916 v 7 c 5.5e-5,0.351218 -0.184191,0.676706 -0.48535,0.85742 l -5,3 C 25.359229,32.866796 25.181314,32.916086 25,32.916 Z M 21,28.34959 25,30.75 29,28.34961 V 22.48242 L 25,20.082 21,22.48239 Z"
         id="path20"
         inkscape:connector-curvature="0" />
      <path
         d="m 25,32.916 c -0.552285,0 -1,-0.447715 -1,-1 v -6.43358 l -4.51465,-2.709 c -0.306327,-0.183867 -0.491293,-0.51719 -0.485222,-0.87441 0.0061,-0.35722 0.202253,-0.684067 0.514649,-0.85742 0.312397,-0.173353 0.693546,-0.166877 0.999873,0.01699 l 5,3 C 25.815809,24.239294 26.000055,24.564782 26,24.916 v 7 c 0,0.552285 -0.447715,1 -1,1 z"
         id="path22"
         inkscape:connector-curvature="0" />
      <path
         d="m 25.001,25.916 c -0.449641,4.51e-4 -0.844293,-0.299257 -0.964566,-0.732515 -0.120272,-0.433257 0.06341,-0.893512 0.448946,-1.124905 l 5,-3 c 0.47354,-0.284233 1.087837,-0.13077 1.37207,0.34277 0.284233,0.47354 0.13077,1.087837 -0.34277,1.37207 l -5,3 C 25.35961,25.86679 25.182008,25.916082 25.001,25.916 Z"
         id="path24"
         inkscape:connector-curvature="0" />
      <path
         d="m 35,32.916 c -0.181314,8.6e-5 -0.359229,-0.0492 -0.51465,-0.14258 l -5,-3 C 29.184191,29.592706 28.999945,29.267218 29,28.916 v -7 c -5.5e-5,-0.351218 0.184191,-0.676706 0.48535,-0.85742 l 5,-3 c 0.316676,-0.190431 0.712624,-0.190431 1.0293,0 l 5,3 C 40.815809,21.239294 41.000055,21.564782 41,21.916 v 7 c 5.5e-5,0.351218 -0.184191,0.676706 -0.48535,0.85742 l -5,3 C 35.359229,32.866796 35.181314,32.916086 35,32.916 Z M 31,28.34959 35,30.75 39,28.34961 V 22.48242 L 35,20.082 31,22.48239 Z"
         id="path26"
         inkscape:connector-curvature="0" />
      <path
         d="m 35,32.916 c -0.552285,0 -1,-0.447715 -1,-1 v -6.43358 l -4.51465,-2.709 c -0.47354,-0.284233 -0.627003,-0.89853 -0.34277,-1.37207 0.284233,-0.47354 0.89853,-0.627003 1.37207,-0.34277 l 5,3 C 35.815809,24.239294 36.000055,24.564782 36,24.916 v 7 c 0,0.552285 -0.447715,1 -1,1 z"
         id="path28"
         inkscape:connector-curvature="0" />
      <path
         d="m 35.001,25.916 c -0.449641,4.51e-4 -0.844293,-0.299257 -0.964566,-0.732515 -0.120272,-0.433257 0.06341,-0.893512 0.448946,-1.124905 l 5,-3 c 0.306327,-0.183867 0.687476,-0.190343 0.999873,-0.01699 0.312396,0.173353 0.50858,0.5002 0.514649,0.85742 0.0061,0.35722 -0.178895,0.690543 -0.485222,0.87441 l -5,3 C 35.35961,25.86679 35.182008,25.916082 35.001,25.916 Z"
         id="path30"
         inkscape:connector-curvature="0" />
      <path
         d="m 30,22.916 c -0.181314,8.6e-5 -0.359229,-0.0492 -0.51465,-0.14258 l -5,-3 C 24.184191,19.592706 23.999945,19.267218 24,18.916 v -7 c -5.5e-5,-0.351218 0.184191,-0.676706 0.48535,-0.85742 l 5,-3 c 0.316676,-0.1904305 0.712624,-0.1904305 1.0293,0 l 5,3 C 35.815809,11.239294 36.000055,11.564782 36,11.916 v 7 c 5.5e-5,0.351218 -0.184191,0.676706 -0.48535,0.85742 l -5,3 C 30.359229,22.866796 30.181314,22.916086 30,22.916 Z M 26,18.34959 30,20.75 34,18.34961 V 12.48242 L 30,10.082 26,12.48239 Z"
         id="path32"
         inkscape:connector-curvature="0" />
      <path
         d="m 30,22.916 c -0.552285,0 -1,-0.447715 -1,-1 v -6.43358 l -4.51465,-2.709 c -0.306327,-0.183867 -0.491293,-0.51719 -0.485222,-0.87441 0.0061,-0.35722 0.202253,-0.684067 0.514649,-0.85742 0.312397,-0.173353 0.693546,-0.166877 0.999873,0.01699 l 5,3 C 30.815809,14.239294 31.000055,14.564782 31,14.916 v 7 c 0,0.552285 -0.447715,1 -1,1 z"
         id="path34"
         inkscape:connector-curvature="0" />
      <path
         d="m 30.001,15.916 c -0.449641,4.51e-4 -0.844293,-0.299257 -0.964566,-0.732515 -0.120272,-0.433257 0.06341,-0.893512 0.448946,-1.124905 l 5,-3 c 0.306327,-0.183867 0.687476,-0.190343 0.999873,-0.01699 0.312396,0.173353 0.50858,0.5002 0.514649,0.85742 0.0061,0.35722 -0.178895,0.690543 -0.485222,0.87441 l -5,3 C 30.35961,15.86679 30.182008,15.916082 30.001,15.916 Z"
         id="path36"
         inkscape:connector-curvature="0" />
    </g>
  </g>
</svg>
